<?xml version="1.0" encoding="utf-8"?>
<!-- Generated by IcoMoon.io -->
<!DOCTYPE svg PUBLIC "-//W3C//DTD SVG 1.1//EN" "http://www.w3.org/Graphics/SVG/1.1/DTD/svg11.dtd">
<svg version="1.1" xmlns="http://www.w3.org/2000/svg" xmlns:xlink="http://www.w3.org/1999/xlink" x="0px" y="0px"
     width="28" height="32" viewBox="0 0 28 32" enable-background="new 0 0 32 32" xml:space="preserve">
<path d="M24.080 0h-24.080v28.739h24.080v-28.739zM22.633 27.292c-1.313 0-19.871 0-21.186 0 0-1.336 0-24.511 0-25.843 1.315 0 19.873 0 21.186 0 0 1.333 0 24.508 0 25.843z" fill="#fca752"></path>
<path d="M3.974 4.667h16.461v1.519h-16.461v-1.519z" fill="#fca752"></path>
<path d="M3.974 9.452h16.461v1.517h-16.461v-1.517z" fill="#fca752"></path>
<path d="M25.071 3.257v1.449h1.363v25.842h-21.187v-1.004h-1.45v2.455h24.087v-28.742z" fill="#fca752"></path>
<path d="M4.589 20.71c0.286 0 0.546-0.081 0.787-0.199l2.065 1.689c-0.011 0.080-0.047 0.148-0.047 0.231 0 1 0.81 1.808 1.808 1.808s1.808-0.81 1.808-1.808c0-0.287-0.082-0.548-0.2-0.79 0.993-1.488 2.26-3.392 3.021-4.533 0.117 0.025 0.227 0.071 0.35 0.071 0.434 0 0.817-0.173 1.129-0.428 0.68 0.397 1.563 0.912 2.323 1.355-0.001 0.026-0.015 0.045-0.015 0.071 0 1 0.81 1.808 1.808 1.808s1.807-0.81 1.807-1.808-0.809-1.808-1.807-1.808c-0.442 0-0.832 0.177-1.148 0.441l-2.311-1.348c0.001-0.030 0.018-0.056 0.018-0.086 0-0.998-0.809-1.806-1.806-1.806s-1.804 0.809-1.804 1.806c0 0.335 0.115 0.63 0.273 0.899-0.949 1.425-2.187 3.283-2.963 4.449-0.157-0.047-0.312-0.1-0.483-0.1-0.373 0-0.702 0.141-0.99 0.335-0.573-0.47-1.281-1.049-1.914-1.567 0.045-0.159 0.099-0.316 0.099-0.489 0-1.001-0.814-1.808-1.808-1.807-1.001 0-1.81 0.807-1.81 1.807-0.001 0.997 0.807 1.807 1.81 1.807z" fill="#fca752"></path>
</svg>
