<?xml version="1.0" encoding="utf-8"?>
<!-- Generated by IcoMoon.io -->
<!DOCTYPE svg PUBLIC "-//W3C//DTD SVG 1.1//EN" "http://www.w3.org/Graphics/SVG/1.1/DTD/svg11.dtd">
<svg version="1.1" xmlns="http://www.w3.org/2000/svg" xmlns:xlink="http://www.w3.org/1999/xlink" x="0px" y="0px" 
     width="32" height="32" viewBox="0 0 32 32" enable-background="new 0 0 32 32" xml:space="preserve">
<path d="M15.98 17.186v0.001c0.004 0 0.007-0 0.011-0 0.001 0 0.004 0 0.007 0 0 0 0.002 0 0.003 0s0.002 0 0.003 0 0.006-0 0.007-0c0.004 0 0.007 0 0.011 0v-0.001c4.275 0.065 6.881-3.656 6.977-9.797h-4.985c-0.389 0.711-1.144 1.194-2.012 1.194s-1.623-0.483-2.012-1.194h-4.985c0.095 6.141 2.702 9.862 6.977 9.797z" fill="#fca752"></path>
<path d="M16 4c0.966 0 1.791 0.599 2.128 1.444h4.697c-0.646-3.156-3.117-4.941-6.797-5.039v-0.002c-0.007 0-0.012 0-0.019 0v-0c-0.003 0-0.006 0-0.009 0s-0.006-0-0.009-0v0c-0.007 0-0.012-0-0.018-0v0.002c-3.681 0.098-6.151 1.883-6.798 5.039h4.697c0.337-0.846 1.162-1.444 2.128-1.444z" fill="#fca752"></path>
<path d="M31.244 30.164l-5.381-8.996c-0.325-0.544-0.809-0.931-1.354-1.156l-3.688-1.698-1.772-1.494-3.045 3.028-3.052-3.028-1.772 1.494-3.688 1.698c-0.546 0.224-1.030 0.611-1.354 1.156l-5.382 8.996c-0.263 0.442-0.395 0.936-0.399 1.433l14.038-0.010 1.604-10.017 1.604 10.018 14.038 0.010c-0.003-0.497-0.135-0.992-0.399-1.433zM25.306 27.825h-1.454v1.454h-1.703v-1.454h-1.454v-1.703h1.454v-1.454h1.703v1.454h1.454v1.703z" fill="#fca752"></path>
</svg>
