<?xml version="1.0" encoding="utf-8"?>
<!-- Generated by IcoMoon.io -->
<!DOCTYPE svg PUBLIC "-//W3C//DTD SVG 1.1//EN" "http://www.w3.org/Graphics/SVG/1.1/DTD/svg11.dtd">
<svg version="1.1" xmlns="http://www.w3.org/2000/svg" xmlns:xlink="http://www.w3.org/1999/xlink" x="0px" y="0px"
     width="32" height="32" viewBox="0 0 32 32" enable-background="new 0 0 32 32" xml:space="preserve">
<path d="M18.218 21.094c0.352 0 0.64-0.288 0.64-0.64v-0.298c0-0.352-0.288-0.64-0.64-0.64h-10.688c-0.352 0-0.64 0.288-0.64 0.64v0.298c0 0.352 0.288 0.64 0.64 0.64h10.688z" fill="#fca752"></path>
<path d="M24.928 7.901c-1.005-1.005-2.173-1.792-3.478-2.346l-0.006-0.003c-0.426-0.179-0.918-0.026-1.168 0.362l-0.742 1.155c-0.186-0.064-0.384-0.102-0.589-0.118-0.061-0.003-0.125-0.006-0.189-0.006-0.173 0-0.342 0.019-0.506 0.054l1.715-2.675c0.285-0.445 0.157-1.040-0.291-1.325l-3.498-2.25c-0.16-0.102-0.339-0.15-0.518-0.15-0.317 0-0.627 0.157-0.81 0.442l-6.083 9.485c-0.285 0.445-0.157 1.040 0.291 1.325l0.662 0.426-0.602 0.941-0.189 0.294c-0.285 0.445-0.157 1.040 0.291 1.325l0.57 0.365c0.445 0.285 1.040 0.157 1.325-0.291l0.189-0.294 0.602-0.941 0.653 0.419c0.16 0.102 0.339 0.15 0.518 0.15 0.317 0 0.627-0.157 0.81-0.442l2.496-3.894c0.051 0.23 0.134 0.448 0.25 0.65 0.099 0.176 0.218 0.339 0.355 0.483 0.461 0.486 1.117 0.787 1.843 0.765 1.283-0.038 2.326-1.082 2.362-2.365 0.010-0.314-0.042-0.614-0.141-0.893 0.669 0.365 1.29 0.829 1.843 1.382 1.523 1.523 2.362 3.546 2.362 5.699s-0.838 4.176-2.362 5.699c-0.947 0.947-2.086 1.629-3.331 2.010-0.093 0.029-0.189 0.042-0.285 0.042h-3.149c-0.531 0-0.96-0.429-0.96-0.96v-0.214h-4.586v4.32c0.099-0.006 0.202-0.010 0.301-0.010h13.766c1.094-0.195 1.93-1.152 1.93-2.304 0-0.71-0.317-1.347-0.816-1.776 0.614-0.774 1.123-1.626 1.51-2.541 0.57-1.35 0.861-2.784 0.861-4.259s-0.288-2.909-0.861-4.259c-0.554-1.302-1.341-2.474-2.346-3.475zM18.755 10.253c-0.406 0-0.746-0.275-0.845-0.653-0.019-0.070-0.029-0.147-0.029-0.224 0-0.432 0.314-0.79 0.726-0.861 0.048-0.010 0.099-0.013 0.15-0.013 0.483 0 0.874 0.39 0.874 0.874s-0.394 0.877-0.877 0.877zM24.576 24.957c-0.102 0.048-0.218 0.074-0.339 0.074-0.323 0-0.602-0.186-0.733-0.458-0.054-0.109-0.083-0.234-0.083-0.362 0-0.451 0.365-0.819 0.819-0.819 0.122 0 0.237 0.026 0.339 0.074 0.054 0.026 0.109 0.058 0.157 0.093 0.195 0.15 0.323 0.384 0.323 0.65-0.003 0.336-0.202 0.621-0.483 0.749z" fill="#fca752"></path>
<path d="M10.582 27.648c-2.093 0.154-3.741 1.901-3.741 4.032h16.774c0.531 0 0.96-0.429 0.96-0.96v-3.082h-13.693c-0.102 0-0.202 0.003-0.301 0.010z" fill="#fca752"></path>
</svg>
