<?xml version="1.0" encoding="utf-8"?>
<!-- Generated by IcoMoon.io -->
<!DOCTYPE svg PUBLIC "-//W3C//DTD SVG 1.1//EN" "http://www.w3.org/Graphics/SVG/1.1/DTD/svg11.dtd">
<svg version="1.1" xmlns="http://www.w3.org/2000/svg" xmlns:xlink="http://www.w3.org/1999/xlink" x="0px" y="0px"
     width="32" height="32" viewBox="0 0 32 32" enable-background="new 0 0 32 32" xml:space="preserve">
<path d="M5.787 30.809h20.427c1.085 0 1.964-0.879 1.964-1.964v-13.253c0-1.085-0.879-1.964-1.964-1.964h-2.934v3.907c1.156 0.345 2.001 1.417 2.001 2.683v2.134h-1.6v-2.134c0-0.662-0.539-1.201-1.201-1.201s-1.201 0.539-1.201 1.201v2.134h-1.6v-2.134c0-1.267 0.845-2.338 2.001-2.683v-3.81c-1.46 1.447-3.467 2.342-5.68 2.342-2.132 0-4.071-0.832-5.516-2.187v4.266c1.043 0.338 1.799 1.318 1.799 2.472 0 1.433-1.166 2.599-2.599 2.599s-2.599-1.166-2.599-2.599c0-1.154 0.756-2.134 1.799-2.472v-4.518h-3.098c-1.085 0-1.964 0.879-1.964 1.964v13.253c0 1.085 0.88 1.964 1.964 1.964z" fill="#fca752"></path>
<path d="M11.101 13.147c0.178 0.169 0.364 0.33 0.559 0.48 1.201 0.926 2.705 1.479 4.339 1.479s3.138-0.552 4.339-1.479c0.195-0.15 0.381-0.311 0.559-0.48 0.161-0.153 0.314-0.313 0.46-0.48 1.091-1.25 1.753-2.884 1.753-4.673 0-3.928-3.184-7.112-7.112-7.112s-7.112 3.184-7.112 7.112c0 1.789 0.662 3.423 1.753 4.673 0.145 0.167 0.299 0.327 0.46 0.48z" fill="#fca752"></path>
<path d="M8.685 20.617c0 0.551 0.448 0.999 0.999 0.999s0.999-0.448 0.999-0.999c0-0.307-0.142-0.579-0.361-0.762-0.174-0.146-0.395-0.237-0.638-0.237s-0.465 0.091-0.638 0.237c-0.219 0.183-0.361 0.455-0.361 0.762z" fill="#fca752"></path>
</svg>
