<?xml version="1.0" encoding="utf-8"?>
<!-- Generated by IcoMoon.io -->
<!DOCTYPE svg PUBLIC "-//W3C//DTD SVG 1.1//EN" "http://www.w3.org/Graphics/SVG/1.1/DTD/svg11.dtd">
<svg version="1.1" xmlns="http://www.w3.org/2000/svg" xmlns:xlink="http://www.w3.org/1999/xlink" x="0px" y="0px"
     width="32" height="32" viewBox="0 0 32 32" enable-background="new 0 0 32 32" xml:space="preserve">
<path d="M11.962 21.157l0.285-1.454c0.552-2.822 1.996-6.663 5.741-8.944l1.442-0.877-8.866-5.423c-1.061-0.651-2.279-0.994-3.521-0.994-2.376 0-4.533 1.208-5.771 3.232-1.944 3.179-0.94 7.347 2.239 9.292l8.45 5.169zM3.033 7.772c0.86-1.407 2.361-2.247 4.012-2.247 0.861 0 1.707 0.239 2.446 0.69l6.083 3.722c-2.928 2.334-4.337 5.517-5.012 7.945l-5.974-3.653c-2.209-1.352-2.906-4.249-1.554-6.458z" fill="#fca752"></path>
<path d="M28.9 15.995l-7.925-4.848-0.146 0.063c-0.924 0.396-1.718 0.889-2.419 1.437l7.633 4.659c0.288 0.177 0.381 0.554 0.203 0.843-0.115 0.189-0.317 0.294-0.523 0.294-0.109 0-0.219-0.029-0.32-0.090 0 0-7.829-4.834-7.878-4.938-2.799 2.732-3.581 6.458-3.794 8.241l-0.024 0.197 8.452 5.168c1.015 0.622 2.18 0.95 3.366 0.95 2.272 0 4.334-1.155 5.518-3.090 1.86-3.040 0.899-7.025-2.139-8.885z" fill="#fca752"></path>
</svg>
