<?xml version="1.0" encoding="utf-8"?>
<!-- Generated by IcoMoon.io -->
<!DOCTYPE svg PUBLIC "-//W3C//DTD SVG 1.1//EN" "http://www.w3.org/Graphics/SVG/1.1/DTD/svg11.dtd">
<svg version="1.1" xmlns="http://www.w3.org/2000/svg" xmlns:xlink="http://www.w3.org/1999/xlink" x="0px" y="0px"
     width="26" height="32" viewBox="0 0 26 32" enable-background="new 0 0 32 32" xml:space="preserve">
<path d="M15.285 6.49c0 3.585-2.906 6.49-6.49 6.49s-6.49-2.906-6.49-6.49c0-3.584 2.906-6.49 6.49-6.49s6.49 2.906 6.49 6.49z" fill="#fca752"></path>
<path d="M18.24 16.635c-0.843 0-1.651 0.143-2.411 0.394-1.604-2.057-4.153-3.393-7.034-3.393-4.858 0.001-8.795 3.784-8.795 8.456v4.695h10.971c1.032 3.028 3.898 5.215 7.269 5.215 4.238 0 7.684-3.448 7.684-7.684s-3.446-7.683-7.684-7.683zM12.25 24.318c0-3.302 2.687-5.991 5.989-5.991 3.305 0 5.992 2.689 5.992 5.991 0 3.303-2.687 5.991-5.992 5.991-3.302 0-5.989-2.687-5.989-5.991z" fill="#fca752"></path>
<path d="M19.309 19.913h-1.908c-0.001 0.914 0 3.319 0 3.319s-2.070 0-3.094 0.003v1.906c1.024-0.001 3.094-0.001 3.094-0.001s0 2.402-0.001 3.32h1.908c0.001-0.918 0.001-3.32 0.001-3.32s2.068 0 3.092 0v-1.908c-1.024 0-3.092 0-3.092 0s-0.001-2.405 0-3.319z" fill="#fca752"></path>
</svg>
