<?xml version="1.0" encoding="utf-8"?>
<!-- Generated by IcoMoon.io -->
<!DOCTYPE svg PUBLIC "-//W3C//DTD SVG 1.1//EN" "http://www.w3.org/Graphics/SVG/1.1/DTD/svg11.dtd">
<svg version="1.1" xmlns="http://www.w3.org/2000/svg" xmlns:xlink="http://www.w3.org/1999/xlink" x="0px" y="0px"
     width="32" height="32" viewBox="0 0 32 32" enable-background="new 0 0 32 32" xml:space="preserve">
<path d="M10.529 21.906c-0.195 0.195-0.354 0.578-0.354 0.854v3.595h2.087v-5.682c0-0.276-0.158-0.342-0.354-0.146l-1.38 1.38z" fill="#fca752"></path>
<path d="M19.696 18.5c-0.195 0.195-0.354 0.578-0.354 0.854v7.001h2.087v-9.091c0-0.276-0.158-0.341-0.354-0.146l-1.38 1.381z" fill="#fca752"></path>
<path d="M22.751 15.441c-0.195 0.195-0.354 0.577-0.354 0.853v10.061h1.941v-11.998c0-0.276-0.159-0.342-0.354-0.146l-1.232 1.23z" fill="#fca752"></path>
<path d="M16.702 21.494c0 0-0.093 0.093-0.208 0.209s-0.207 0.433-0.207 0.709v3.944h2.087v-6.031c0-0.276-0.159-0.342-0.354-0.146l-1.317 1.317z" fill="#fca752"></path>
<path d="M13.585 20.433c-0.195-0.195-0.354-0.13-0.354 0.146v5.775h2.087v-3.692c0-0.276-0.15-0.649-0.335-0.834l-0.335-0.334-1.062-1.061z" fill="#fca752"></path>
<path d="M7.902 24.534l-0.674 0.675c-0.195 0.195-0.353 0.531-0.353 0.75v0.396h2.33v-2.625c0-0.276-0.158-0.341-0.354-0.146l-0.949 0.951z" fill="#fca752"></path>
<path d="M26.854 14.265c0.195 0.195 0.354 0.13 0.354-0.146v-7.144c0-0.511-0.49-0.96-0.998-0.96h-7.103c-0.276 0-0.342 0.159-0.146 0.354l2.526 2.529-1.030 1.026-4.779 4.784-2.528-2.527c-0.196-0.195-0.511-0.195-0.707 0l-7.030 7.035c-0.781 0.782-0.78 2.048 0 2.829l0.049 0.049c0.781 0.781 2.048 0.781 2.828-0l4.505-4.508 2.528 2.526c0.196 0.195 0.512 0.195 0.708 0l8.334-8.335 2.491 2.49z" fill="#fca752"></path>
</svg>
