<?xml version="1.0" encoding="utf-8"?>
<!-- Generated by IcoMoon.io -->
<!DOCTYPE svg PUBLIC "-//W3C//DTD SVG 1.1//EN" "http://www.w3.org/Graphics/SVG/1.1/DTD/svg11.dtd">
<svg version="1.1" xmlns="http://www.w3.org/2000/svg" xmlns:xlink="http://www.w3.org/1999/xlink" x="0px" y="0px"
     width="32" height="32" viewBox="0 0 32 32" enable-background="new 0 0 32 32" xml:space="preserve">
<path d="M27.727 9.011c-0.143-0.197-0.372-0.313-0.616-0.313h-17.143c-0.033 0-0.066 0.002-0.098 0.006l-0.706-2.034c-0.073-0.21-0.234-0.378-0.441-0.459l-3.556-1.397c-0.392-0.153-0.834 0.039-0.988 0.43s0.039 0.834 0.43 0.988l3.229 1.269 3.953 11.394c-0.174 0.061-0.322 0.195-0.39 0.382l-1.143 3.175c-0.070 0.195-0.041 0.411 0.078 0.58s0.313 0.27 0.519 0.27h0.587c-0.364 0.405-0.587 0.938-0.587 1.524 0 1.26 1.026 2.286 2.286 2.286s2.286-1.025 2.286-2.286c0-0.586-0.223-1.119-0.587-1.524h4.983c-0.364 0.405-0.587 0.938-0.587 1.524 0 1.26 1.025 2.286 2.286 2.286s2.286-1.025 2.286-2.286c0-0.586-0.223-1.119-0.587-1.524h0.714c0.351 0 0.635-0.284 0.635-0.635s-0.284-0.635-0.635-0.635h-12.176l0.708-1.966c0.091 0.038 0.19 0.061 0.294 0.061h11.175c0.331 0 0.625-0.214 0.725-0.529l3.175-9.905c0.074-0.232 0.034-0.485-0.11-0.682zM13.143 25.841c-0.56 0-1.016-0.456-1.016-1.016s0.456-1.016 1.016-1.016 1.016 0.456 1.016 1.016-0.456 1.016-1.016 1.016zM21.524 25.841c-0.56 0-1.016-0.456-1.016-1.016s0.456-1.016 1.016-1.016 1.016 0.456 1.016 1.016-0.456 1.016-1.016 1.016zM25.517 11.937h-3.888v-1.714h4.437l-0.549 1.714zM24.398 15.429h-2.768v-1.968h3.399l-0.631 1.968zM16.593 15.429v-1.968h3.513v1.968h-3.513zM20.106 16.952v1.651h-3.513v-1.651h3.513zM11.52 13.46h3.549v1.968h-2.866l-0.683-1.968zM16.593 11.937v-1.714h3.513v1.714h-3.513zM15.069 10.222v1.714h-4.078l-0.595-1.714h4.672zM12.731 16.952h2.337v1.651h-1.765l-0.573-1.651zM21.63 18.603v-1.651h2.28l-0.529 1.651h-1.751z" fill="#fca752"></path>
</svg>
