<?xml version="1.0" encoding="iso-8859-1"?>
<!-- Generator: Adobe Illustrator 16.0.0, SVG Export Plug-In . SVG Version: 6.00 Build 0)  -->
<!DOCTYPE svg PUBLIC "-//W3C//DTD SVG 1.1//EN" "http://www.w3.org/Graphics/SVG/1.1/DTD/svg11.dtd">
<svg version="1.1" xmlns="http://www.w3.org/2000/svg" xmlns:xlink="http://www.w3.org/1999/xlink" x="0px" y="0px" width="512px"
	 height="512px" viewBox="0 0 512 512" style="enable-background:new 0 0 512 512;" xml:space="preserve">
<g id="Guides_For_Artboard">
</g>
<g id="_x30_">
</g>
<g id="_x31_">
</g>
<g id="_x32_">
</g>
<g id="_x33_">
</g>
<g id="_x34_">
</g>
<g id="_x35_">
</g>
<g id="_x36_">
</g>
<g id="_x37_">
</g>
<g id="_x38_">
</g>
<g id="_x39_">
</g>
<g id="_x31_0">
</g>
<g id="_x31_1">
</g>
<g id="_x31_2">
</g>
<g id="_x31_3">
</g>
<g id="_x31_4">
</g>
<g id="_x31_5">
</g>
<g id="_x31_6">
</g>
<g id="_x31_7">
</g>
<g id="_x31_8">
</g>
<g id="_x31_9">
</g>
<g id="_x32_0">
</g>
<g id="_x32_1">
</g>
<g id="_x32_2">
</g>
<g id="_x32_3">
</g>
<g id="_x32_4">
</g>
<g id="_x32_5">
</g>
<g id="_x32_6">
</g>
<g id="_x32_7">
</g>
<g id="_x32_8">
</g>
<g id="_x32_9">
</g>
<g id="_x33_0">
</g>
<g id="_x33_1">
</g>
<g id="_x33_2">
</g>
<g id="_x33_3">
</g>
<g id="_x33_4">
</g>
<g id="_x33_5">
</g>
<g id="_x33_6">
</g>
<g id="_x33_7">
</g>
<g id="_x33_8">
</g>
<g id="_x33_9">
	<g>
		<path d="M342.008,85.271h-42.117c-1.313,0-2.377,1.064-2.377,2.378v33.027c0,1.313,1.064,2.377,2.377,2.377h42.117
			c1.313,0,2.378-1.064,2.378-2.377V87.649C344.386,86.336,343.321,85.271,342.008,85.271z"/>
		<path d="M425.8,86.2c-45.355-45.354-105.659-70.333-169.801-70.333S131.556,40.846,86.2,86.2
			C40.845,131.556,15.866,191.858,15.866,256S40.845,380.444,86.2,425.8c45.355,45.354,105.657,70.333,169.799,70.333
			S380.444,471.154,425.8,425.8c45.355-45.355,70.334-105.658,70.334-169.8S471.155,131.556,425.8,86.2z M255.999,461.133
			c-113.11,0-205.133-92.022-205.133-205.133c0-39.545,11.26-76.506,30.725-107.864l65.432,65.431h-13.783
			c-0.905,0-1.74,0.49-2.182,1.281l-1.483,2.655c-6.641,11.644-10.151,25.255-10.151,39.364c0,34.535,21.709,64.377,50.832,70.41
			v76.686c-19.181,0.979-28.902,3.859-28.902,8.566c0,3.336,3.913,5.422,13.084,6.973c7.216,1.22,16.801,1.893,26.988,1.893
			c10.189,0,19.779-0.673,27.004-1.893c9.181-1.552,13.098-3.637,13.098-6.973c0-4.708-9.715-7.587-28.887-8.566v-76.773
			c13.662-2.998,26.127-11.339,35.285-23.662c1.295-1.742,2.505-3.554,3.641-5.418l35.373,35.373v87.311c0,1.381,1.119,2.5,2.5,2.5
			h87.312l7.114,7.115C332.506,449.873,295.545,461.133,255.999,461.133z M142.396,264.035c0.047,0.424,4.986,42.424,39.084,42.424
			c19.532,0,28.642-13.705,32.869-25.566l5.819,5.819c-1.852,3.527-4.033,6.838-6.55,9.857
			c-8.723,10.467-20.262,16.231-32.49,16.231c-25.439,0-46.137-25.106-46.137-55.965c0-9.775,2.098-19.324,6.078-27.717h21.506
			l32.186,32.186h-49.914c-0.7,0-1.367,0.298-1.834,0.818C142.545,262.645,142.321,263.339,142.396,264.035z M281.899,349.746
			v-1.303l6.303,6.303h-1.303C284.139,354.746,281.899,352.507,281.899,349.746z M298.325,271.529h57.105c2.762,0,5,2.238,5,5
			v57.105L298.325,271.529z M413.761,386.965l-39.271-39.271V218.605c0.016-20.552-11.789-39.342-30.209-48.322V137.85
			c0-1.381-1.119-2.5-2.5-2.5h-42.117c-1.381,0-2.5,1.119-2.5,2.5v32.449c-18.414,8.976-30.225,27.759-30.225,48.305v21.539
			L125.034,98.239c35.555-29.566,81.218-47.372,130.965-47.372c113.111,0,205.135,92.022,205.135,205.133
			C461.134,305.748,443.327,351.411,413.761,386.965z"/>
	</g>
</g>
<g id="_x34_0">
</g>
<g id="_x34_1">
</g>
<g id="_x34_2">
</g>
<g id="_x34_3">
</g>
<g id="_x34_4">
</g>
<g id="_x34_5">
</g>
<g id="_x34_6">
</g>
<g id="_x34_7">
</g>
<g id="_x34_8">
</g>
<g id="_x34_9">
</g>
<g id="_x35_0">
</g>
<g id="_x35_1">
</g>
<g id="_x35_2">
</g>
<g id="_x35_3">
</g>
<g id="_x35_4">
</g>
<g id="_x35_5">
</g>
<g id="_x35_6">
</g>
<g id="_x35_7">
</g>
<g id="_x35_8">
</g>
<g id="_x35_9">
</g>
<g id="_x36_0">
</g>
<g id="_x36_1">
</g>
<g id="_x36_2">
</g>
<g id="_x36_3">
</g>
<g id="_x36_4">
</g>
<g id="_x36_5">
</g>
<g id="_x36_6">
</g>
<g id="_x36_7">
</g>
<g id="_x36_8">
</g>
<g id="_x36_9">
</g>
<g id="_x37_0">
</g>
</svg>
