<?xml version="1.0" encoding="utf-8"?>
<!-- Generated by IcoMoon.io -->
<!DOCTYPE svg PUBLIC "-//W3C//DTD SVG 1.1//EN" "http://www.w3.org/Graphics/SVG/1.1/DTD/svg11.dtd">
<svg version="1.1" xmlns="http://www.w3.org/2000/svg" xmlns:xlink="http://www.w3.org/1999/xlink" x="0px" y="0px"
     width="32" height="32" viewBox="0 0 32 32" enable-background="new 0 0 32 32" xml:space="preserve">
<path d="M21.704 15.974c0-5.904-4.786-10.691-10.691-10.691s-10.69 4.786-10.69 10.691c0 5.905 4.786 10.691 10.69 10.691s10.691-4.786 10.691-10.691zM11.013 24.337c-4.618 0-8.363-3.745-8.363-8.363s3.745-8.363 8.363-8.363c4.619 0 8.363 3.744 8.363 8.363s-3.744 8.363-8.363 8.363z" fill="#fca752"></path>
<path d="M12.004 14.786c-1.529-0.576-2.159-0.953-2.159-1.548 0-0.503 0.378-1.007 1.547-1.007 1.296 0 2.123 0.413 2.591 0.611l0.521-2.033c-0.593-0.287-1.403-0.539-2.607-0.593v-1.583h-1.765v1.709c-1.925 0.378-3.040 1.619-3.040 3.202 0 1.745 1.314 2.645 3.239 3.293 1.331 0.45 1.907 0.882 1.907 1.565 0 0.72-0.701 1.115-1.727 1.115-1.169 0-2.231-0.377-2.986-0.791l-0.541 2.104c0.684 0.396 1.853 0.719 3.059 0.774v1.708h1.763v-1.835c2.069-0.36 3.203-1.728 3.203-3.328-0-1.619-0.864-2.609-3.005-3.365z" fill="#fca752"></path>
<path d="M26.783 16.026c0-5.905-4.786-10.691-10.69-10.691-0.319 0-0.634 0.017-0.946 0.044 1.892 0.643 3.559 1.777 4.848 3.25 2.653 1.402 4.461 4.188 4.461 7.397s-1.808 5.995-4.461 7.397c-1.289 1.473-2.956 2.606-4.848 3.25 0.312 0.027 0.627 0.044 0.946 0.044 5.904 0 10.69-4.786 10.69-10.691z" fill="#fca752"></path>
<path d="M20.987 5.335c-0.319 0-0.634 0.017-0.946 0.044 1.892 0.643 3.558 1.777 4.848 3.25 2.653 1.402 4.461 4.188 4.461 7.397s-1.809 5.995-4.461 7.397c-1.29 1.473-2.956 2.606-4.848 3.25 0.312 0.027 0.627 0.044 0.946 0.044 5.905 0 10.69-4.786 10.69-10.691s-4.786-10.691-10.69-10.691z" fill="#fca752"></path>
</svg>
