<?xml version="1.0" encoding="utf-8"?>
<!-- Generated by IcoMoon.io -->
<!DOCTYPE svg PUBLIC "-//W3C//DTD SVG 1.1//EN" "http://www.w3.org/Graphics/SVG/1.1/DTD/svg11.dtd">
<svg version="1.1" xmlns="http://www.w3.org/2000/svg" xmlns:xlink="http://www.w3.org/1999/xlink" x="0px" y="0px"
     width="31" height="32" viewBox="0 0 31 32" enable-background="new 0 0 32 32" xml:space="preserve">
<path d="M29.864 24.453l-8.232-2.767c-0.186-0.062-0.379-0.094-0.575-0.094h-6.863l-11.128-10.859c-0.713-0.696-1.855-0.682-2.553 0.030-0.696 0.714-0.683 1.856 0.030 2.554l11.654 11.373c0.337 0.329 0.789 0.514 1.261 0.514h0.803v4.514h-2.376c-0.083 0-0.15 0.068-0.15 0.15v1.981c0 0.083 0.067 0.151 0.15 0.151h10.777c0.083 0 0.151-0.068 0.151-0.151v-1.981c0-0.082-0.068-0.15-0.151-0.15h-2.834v-4.514h0.934l7.951 2.673c0.191 0.063 0.385 0.095 0.576 0.095 0.754 0 1.458-0.477 1.711-1.231 0.317-0.947-0.191-1.97-1.136-2.288z" fill="#fca752"></path>
<path d="M13.453 5.771c0.025 0.016 0.053 0.024 0.082 0.024 0.019 0 0.036-0.003 0.054-0.010 0.045-0.017 0.079-0.055 0.092-0.101 0.004-0.018 0.364-1.417-0.455-2.433l1.116-2.047h6.113v13.693c0 0.332 0.27 0.602 0.602 0.602s0.602-0.27 0.602-0.602v-0.979h9.255c0.083 0 0.15-0.067 0.15-0.15v-2.533c0-0.083-0.067-0.15-0.15-0.15h-1.329v-0.615c0-0.083-0.067-0.15-0.15-0.15h-0.614c-0.083 0-0.15 0.067-0.15 0.15v0.614h-0.515v-0.614c0-0.083-0.067-0.15-0.15-0.15h-0.616c-0.083 0-0.15 0.067-0.15 0.15v0.614h-0.488v-0.614c0-0.083-0.068-0.15-0.151-0.15h-0.613c-0.083 0-0.151 0.067-0.151 0.15v0.614h-0.667v-0.614c0-0.083-0.067-0.15-0.15-0.15h-0.614c-0.083 0-0.15 0.067-0.15 0.15v0.614h-0.489v-0.614c0-0.083-0.067-0.15-0.15-0.15h-0.614c-0.083 0-0.15 0.067-0.15 0.15v0.614h-1.192v-10.482c-0.003-0.333-0.271-0.602-0.604-0.602h-7.072c-0.22 0-0.423 0.121-0.528 0.314l-1.212 2.222c-0.383-0.165-0.785-0.252-1.202-0.252-1.024 0-1.772 0.498-1.804 0.519-0.043 0.028-0.067 0.075-0.067 0.126s0.026 0.098 0.069 0.125l4.212 2.717z" fill="#fca752"></path>
<path d="M7.773 12.652c1.72 0 3.118-1.399 3.118-3.119 0-1.719-1.398-3.118-3.118-3.118s-3.118 1.399-3.118 3.118c0 1.719 1.399 3.119 3.118 3.119z" fill="#fca752"></path>
<path d="M29.771 19.58l-6.64-2.533c-0.206-0.079-0.424-0.118-0.645-0.118h-6.166l-4.324-4.177c-0.716-0.692-1.86-0.673-2.554 0.044-0.692 0.718-0.673 1.86 0.045 2.554l4.849 4.684c0.337 0.325 0.787 0.507 1.255 0.507h6.563l6.329 2.413c0.212 0.081 0.429 0.12 0.643 0.12 0.728 0 1.413-0.443 1.688-1.163 0.356-0.933-0.112-1.977-1.043-2.331z" fill="#fca752"></path>
</svg>
