<?xml version="1.0" encoding="utf-8"?>
<!-- Generated by IcoMoon.io -->
<!DOCTYPE svg PUBLIC "-//W3C//DTD SVG 1.1//EN" "http://www.w3.org/Graphics/SVG/1.1/DTD/svg11.dtd">
<svg version="1.1" xmlns="http://www.w3.org/2000/svg" xmlns:xlink="http://www.w3.org/1999/xlink" x="0px" y="0px"
     width="32" height="32" viewBox="0 0 32 32" enable-background="new 0 0 32 32" xml:space="preserve">
<path d="M28.832 23.392v-11.616h-25.664v11.616c0 0.531 0.429 0.96 0.96 0.96h23.744c0.531 0 0.96-0.429 0.96-0.96zM20.147 18.451c0 0.531-0.429 0.96-0.96 0.96h-1.843v1.869c0 0.531-0.429 0.96-0.96 0.96h-0.768c-0.531 0-0.96-0.429-0.96-0.96v-1.869h-1.843c-0.531 0-0.96-0.429-0.96-0.96v-0.768c0-0.531 0.429-0.96 0.96-0.96h1.843v-1.843c0-0.531 0.429-0.96 0.96-0.96h0.768c0.531 0 0.96 0.429 0.96 0.96v1.843h1.843c0.531 0 0.96 0.429 0.96 0.96v0.768z" fill="#fca752"></path>
<path d="M28.832 8.608c0-0.531-0.429-0.96-0.96-0.96h-5.19v-2.464c0-0.531-0.429-0.96-0.96-0.96h-11.443c-0.531 0-0.96 0.429-0.96 0.96v2.464h-5.19c-0.531 0-0.96 0.429-0.96 0.96v2.048h25.664v-2.048zM20.762 7.648h-9.523v-1.504h9.52v1.504z" fill="#fca752"></path>
</svg>
