<?xml version="1.0" encoding="utf-8"?>
<!-- Generated by IcoMoon.io -->
<!DOCTYPE svg PUBLIC "-//W3C//DTD SVG 1.1//EN" "http://www.w3.org/Graphics/SVG/1.1/DTD/svg11.dtd">
<svg version="1.1" xmlns="http://www.w3.org/2000/svg" xmlns:xlink="http://www.w3.org/1999/xlink" x="0px" y="0px"
     width="32" height="32" viewBox="0 0 32 32" enable-background="new 0 0 32 32" xml:space="preserve">
<path d="M31.834 1.552c0.305-0.461 0.178-1.080-0.282-1.386-0.462-0.305-1.081-0.179-1.386 0.283l-3.699 5.599c-0.155-0.025-0.308-0.048-0.468-0.048-1.653 0-3 1.347-3 3 0 0.318 0.063 0.619 0.155 0.907l-3.572 4.555c-0.461-0.288-1-0.462-1.582-0.462-1.613 0-2.924 1.283-2.988 2.881l-5.651 3.29c-0.549-0.707-1.398-1.171-2.361-1.171-1.654 0-3 1.346-3 3 0 0.65 0.214 1.25 0.566 1.741l-4.402 6.71c-0.303 0.462-0.175 1.082 0.287 1.385 0.169 0.111 0.36 0.164 0.548 0.164 0.326 0 0.646-0.158 0.837-0.451l4.375-6.667c0.253 0.069 0.515 0.118 0.789 0.118 1.613 0 2.924-1.282 2.988-2.881l5.651-3.289c0.549 0.706 1.398 1.17 2.361 1.17 1.654 0 3-1.346 3-3 0-0.318-0.062-0.619-0.154-0.906l3.571-4.555c0.461 0.287 1 0.461 1.582 0.461 1.653 0 3-1.346 3-3 0-0.767-0.298-1.459-0.772-1.99l3.607-5.458zM7 23c-0.552 0-1-0.448-1-1 0-0.551 0.448-1 1-1s1 0.449 1 1c0 0.552-0.448 1-1 1zM18 18c-0.552 0-1-0.448-1-1 0-0.551 0.448-1 1-1s1 0.449 1 1c0 0.552-0.448 1-1 1zM25.999 10c-0.552 0-1-0.448-1-1s0.448-1 1-1 1 0.449 1 1c0 0.552-0.448 1-1 1zM6 30c-0.553 0-1 0.448-1 1 0 0.553 0.447 1 1 1s1-0.447 1-1c0-0.552-0.447-1-1-1zM11 30c-0.553 0-1 0.448-1 1 0 0.553 0.447 1 1 1s1-0.447 1-1c0-0.552-0.447-1-1-1zM16 30c-0.553 0-1 0.448-1 1 0 0.553 0.447 1 1 1s1-0.447 1-1c0-0.552-0.447-1-1-1zM21 30c-0.553 0-1 0.448-1 1 0 0.553 0.447 1 1 1s1-0.447 1-1c0-0.552-0.447-1-1-1zM26 30c-0.553 0-1 0.448-1 1 0 0.553 0.447 1 1 1s1-0.447 1-1c0-0.552-0.447-1-1-1zM31 30c-0.553 0-1 0.448-1 1 0 0.553 0.447 1 1 1s1-0.447 1-1c0-0.552-0.447-1-1-1zM1 27c0.553 0 1-0.447 1-1 0-0.552-0.447-1-1-1s-1 0.448-1 1c0 0.553 0.447 1 1 1zM1 22c0.553 0 1-0.447 1-1 0-0.552-0.447-1-1-1s-1 0.448-1 1c0 0.553 0.447 1 1 1zM1 17c0.553 0 1-0.447 1-1 0-0.552-0.447-1-1-1s-1 0.448-1 1c0 0.553 0.447 1 1 1zM1 12c0.553 0 1-0.446 1-1 0-0.552-0.447-1-1-1s-1 0.448-1 1c0 0.554 0.447 1 1 1zM1 7c0.553 0 1-0.446 1-1 0-0.552-0.447-1-1-1s-1 0.448-1 1c0 0.554 0.447 1 1 1zM1 2c0.553 0 1-0.446 1-1 0-0.552-0.447-1-1-1s-1 0.448-1 1c0 0.554 0.447 1 1 1z" fill="#fca752"></path>
</svg>
