<?xml version="1.0" encoding="utf-8"?>
<!-- Generated by IcoMoon.io -->
<!DOCTYPE svg PUBLIC "-//W3C//DTD SVG 1.1//EN" "http://www.w3.org/Graphics/SVG/1.1/DTD/svg11.dtd">
<svg version="1.1" xmlns="http://www.w3.org/2000/svg" xmlns:xlink="http://www.w3.org/1999/xlink" x="0px" y="0px"
     width="32" height="32" viewBox="0 0 32 32" enable-background="new 0 0 32 32" xml:space="preserve">
<path d="M10.366 5.991c-0.053 0-0.101 0.008-0.153 0.011 1.013-1.642 2.823-2.74 4.894-2.74s3.881 1.099 4.894 2.74c-0.051-0.003-0.1-0.011-0.153-0.011h-3.035c-0.361 0-0.681 0.079-0.942 0.231-0.55-0.076-1.063-0.069-1.5 0.015-0.266-0.161-0.599-0.246-0.969-0.246h-3.036zM15.018 7.551v1.138c0 0.379-0.224 1.617-3.109 1.617-1.205 0-2.006-0.224-2.501-0.548 0.365 2.826 2.775 5.010 5.7 5.010 2.917 0 5.321-2.173 5.696-4.988-0.449 0.294-1.198 0.526-2.447 0.526-2.33 0-3.161-0.835-3.161-1.617v-1.138c-0.062-0.003-0.122-0.002-0.178 0.001zM18.16 27.87c0 0.222 0.047 0.434 0.13 0.626h-12.989v-5.971c0-4.061 3.304-7.366 7.366-7.366h4.881c2.039 0 3.886 0.833 5.22 2.176h-0.523c-0.181 0-0.351 0.047-0.503 0.123-1.14-0.946-2.602-1.515-4.195-1.515h-1.082v2.222h-0.085l-1.212 9.546h3.005c-0.007 0.052-0.014 0.105-0.014 0.158zM15.024 27.712l-1.212-9.546h-0.063v-2.222h-1.082c-3.629 0-6.581 2.953-6.581 6.581v5.187h8.939zM9.14 8.59v-1.286c0-0.628 0.469-1.020 1.225-1.020h3.035c0.361 0 0.67 0.096 0.887 0.273 0.461-0.115 1.047-0.125 1.673-0.024 0.216-0.163 0.508-0.249 0.852-0.249h3.035c0.756 0 1.225 0.391 1.225 1.020v1.286c0 0.756-1.041 1.225-2.717 1.225-1.682 0-2.768-0.481-2.768-1.225v-1.286c0-0.075 0.007-0.148 0.021-0.217-0.394-0.044-0.767-0.028-1.003 0.011 0.013 0.066 0.020 0.135 0.020 0.206v1.286c0 0.756-1.041 1.225-2.717 1.225-1.682-0-2.768-0.481-2.768-1.225zM15.98 8.59c0 0.414 0.816 0.833 2.376 0.833 1.597 0 2.325-0.432 2.325-0.833v-1.286c0-0.566-0.582-0.627-0.833-0.627h-3.035c-0.282 0-0.518 0.074-0.662 0.208l-0.070 0.065-0.034 0.066c-0.044 0.084-0.066 0.178-0.066 0.288v1.287zM9.533 8.59c0 0.414 0.816 0.833 2.376 0.833 1.597 0 2.325-0.432 2.325-0.833v-1.286c0-0.1-0.020-0.191-0.057-0.27l-0.031-0.066-0.055-0.059c-0.14-0.15-0.385-0.233-0.69-0.233h-3.035c-0.25 0-0.833 0.061-0.833 0.627v1.287zM7.761 20.651h4.903v5.622h-4.903v-5.622zM8.546 25.489h3.334v-4.053h-3.334v4.053zM23.452 24.713c0-0.146 0.119-0.265 0.265-0.265s0.265 0.119 0.265 0.265-0.119 0.265-0.265 0.265c-0.146 0-0.265-0.119-0.265-0.265zM23.629 24.713c0 0.049 0.040 0.088 0.088 0.088s0.088-0.039 0.088-0.088-0.039-0.088-0.088-0.088-0.088 0.039-0.088 0.088zM22.349 24.713c0.146 0 0.265 0.119 0.265 0.265 0 0.145-0.119 0.264-0.265 0.264s-0.265-0.119-0.265-0.264c0-0.146 0.119-0.265 0.265-0.265zM22.349 24.889c-0.048 0-0.088 0.039-0.088 0.089 0 0.048 0.040 0.088 0.088 0.088s0.088-0.040 0.088-0.088c0-0.049-0.040-0.089-0.088-0.089zM22.716 23.83c0-0.203 0.165-0.368 0.368-0.368s0.368 0.165 0.368 0.368c0 0.203-0.165 0.367-0.368 0.367s-0.368-0.165-0.368-0.367zM22.893 23.83c0 0.105 0.086 0.191 0.191 0.191s0.192-0.086 0.192-0.191c0-0.106-0.086-0.192-0.192-0.192s-0.191 0.086-0.191 0.192zM26.66 27.806l-2.231-5.652v-3.262h0.271c0.195 0 0.353-0.158 0.353-0.353s-0.158-0.353-0.353-0.353h-0.624c-0.195 0-0.353 0.158-0.353 0.353v3.647c0 0.014 0 0.028 0.002 0.043l0.003 0.020c0.002 0.039 0.010 0.078 0.025 0.115l1.342 3.401h-4.685l1.299-3.404c0.016-0.041 0.026-0.098 0.026-0.141 0.004-0.020 0.005-0.040 0.005-0.060v-3.619c0-0.195-0.158-0.353-0.353-0.353h-0.608c-0.195 0-0.353 0.158-0.353 0.353s0.158 0.353 0.353 0.353h0.255v3.239c-0.001 0.009-0.003 0.018-0.004 0.026l-2.157 5.652c-0.015 0.041-0.023 0.083-0.023 0.126 0 0.443 0.36 0.803 0.804 0.803h6.227c0.443 0 0.803-0.361 0.803-0.803 0-0.045-0.009-0.089-0.025-0.13z" fill="#fca752"></path>
</svg>
