<?xml version="1.0" encoding="utf-8"?>
<!-- Generated by IcoMoon.io -->
<!DOCTYPE svg PUBLIC "-//W3C//DTD SVG 1.1//EN" "http://www.w3.org/Graphics/SVG/1.1/DTD/svg11.dtd">
<svg version="1.1" xmlns="http://www.w3.org/2000/svg" xmlns:xlink="http://www.w3.org/1999/xlink" x="0px" y="0px" 
     width="32" height="32" viewBox="0 0 32 32" enable-background="new 0 0 32 32" xml:space="preserve">
<path d="M9.607 6.644c0-2.006 1.627-3.633 3.633-3.633s3.633 1.627 3.633 3.633-1.627 3.633-3.633 3.633c-2.007 0-3.633-1.627-3.633-3.633zM14.987 12.752c0.036-0.791 0.309-1.523 0.747-2.129-0.308-0.064-0.625-0.099-0.951-0.099h-3.083c-0.325 0-0.643 0.034-0.948 0.098 0.466 0.647 0.745 1.436 0.75 2.292 0.567-0.312 1.217-0.489 1.908-0.489 0.56 0 1.094 0.117 1.578 0.327zM15.602 13.078c1.055 0.662 1.795 1.781 1.931 3.081 0.43 0.201 0.908 0.317 1.414 0.317 1.849 0 3.347-1.499 3.347-3.347s-1.498-3.347-3.347-3.347c-1.832 0-3.317 1.472-3.345 3.297zM13.409 19.932c1.848 0 3.347-1.499 3.347-3.347s-1.499-3.347-3.347-3.347c-1.849 0-3.348 1.499-3.348 3.347s1.499 3.347 3.348 3.347zM14.828 20.16h-2.84c-2.363 0-4.286 1.923-4.286 4.286v3.474l0.009 0.054 0.239 0.075c2.255 0.704 4.215 0.94 5.828 0.94 3.15 0 4.976-0.898 5.088-0.956l0.224-0.113h0.024v-3.474c0-2.363-1.922-4.286-4.285-4.286zM20.367 16.705h-2.819c-0.031 1.128-0.512 2.143-1.273 2.873 2.1 0.625 3.637 2.573 3.637 4.874v1.070c2.783-0.102 4.387-0.891 4.492-0.944l0.224-0.114h0.024v-3.474c0-2.363-1.922-4.285-4.285-4.285zM21.12 9.71c1.055 0.662 1.795 1.781 1.93 3.081 0.43 0.201 0.908 0.317 1.414 0.317 1.849 0 3.348-1.499 3.348-3.347s-1.498-3.347-3.348-3.347c-1.831-0-3.316 1.472-3.344 3.296zM25.885 13.337h-2.818c-0.031 1.128-0.512 2.143-1.273 2.873 2.1 0.625 3.637 2.573 3.637 4.874v1.070c2.782-0.102 4.387-0.891 4.492-0.944l0.223-0.113h0.024v-3.475c0-2.363-1.922-4.285-4.285-4.285zM7.535 16.476c0.655 0 1.264-0.191 1.78-0.517 0.164-1.070 0.738-2.005 1.557-2.642 0.004-0.063 0.009-0.125 0.009-0.188 0-1.849-1.499-3.347-3.347-3.347-1.849 0-3.348 1.498-3.348 3.347s1.498 3.347 3.348 3.347zM10.541 19.578c-0.758-0.726-1.237-1.736-1.273-2.858-0.104-0.008-0.208-0.016-0.314-0.016h-2.84c-2.364 0-4.286 1.923-4.286 4.286v3.474l0.009 0.054 0.239 0.075c1.809 0.565 3.424 0.825 4.827 0.907v-1.049c0-2.3 1.537-4.249 3.638-4.873z" fill="#fca752"></path>
</svg>
